<svg width="17" height="17" viewBox="0 0 17 17" fill="none" xmlns="http://www.w3.org/2000/svg">
<g clip-path="url(#clip0_23_70)">
<path d="M13.8994 0H2.77987C2.04261 0 1.33553 0.298511 0.814206 0.829864C0.292879 1.36122 0 2.08189 0 2.83333L0 11.3333C0 12.0848 0.292879 12.8054 0.814206 13.3368C1.33553 13.8682 2.04261 14.1667 2.77987 14.1667H4.79528L7.88859 16.8321C8.01407 16.9404 8.17314 16.9998 8.33754 16.9998C8.50193 16.9998 8.661 16.9404 8.78649 16.8321L11.884 14.1667H13.8994C14.6366 14.1667 15.3437 13.8682 15.865 13.3368C16.3864 12.8054 16.6792 12.0848 16.6792 11.3333V2.83333C16.6792 2.08189 16.3864 1.36122 15.865 0.829864C15.3437 0.298511 14.6366 0 13.8994 0ZM15.2893 11.3333C15.2893 11.7091 15.1429 12.0694 14.8822 12.3351C14.6215 12.6007 14.268 12.75 13.8994 12.75H11.884C11.5554 12.7501 11.2376 12.8688 10.9868 13.085L8.33962 15.3638L5.69388 13.085C5.44269 12.8685 5.12428 12.7498 4.79528 12.75H2.77987C2.41124 12.75 2.0577 12.6007 1.79704 12.3351C1.53638 12.0694 1.38994 11.7091 1.38994 11.3333V2.83333C1.38994 2.45761 1.53638 2.09728 1.79704 1.8316C2.0577 1.56592 2.41124 1.41667 2.77987 1.41667H13.8994C14.268 1.41667 14.6215 1.56592 14.8822 1.8316C15.1429 2.09728 15.2893 2.45761 15.2893 2.83333V11.3333Z" fill="#087725"/>
<path d="M4.86477 4.95829H8.33961C8.52393 4.95829 8.7007 4.88366 8.83103 4.75083C8.96136 4.61799 9.03458 4.43782 9.03458 4.24996C9.03458 4.0621 8.96136 3.88193 8.83103 3.74909C8.7007 3.61625 8.52393 3.54163 8.33961 3.54163H4.86477C4.68045 3.54163 4.50368 3.61625 4.37335 3.74909C4.24302 3.88193 4.1698 4.0621 4.1698 4.24996C4.1698 4.43782 4.24302 4.61799 4.37335 4.75083C4.50368 4.88366 4.68045 4.95829 4.86477 4.95829Z" fill="#087725"/>
<path d="M11.8145 6.375H4.86477C4.68045 6.375 4.50368 6.44963 4.37335 6.58247C4.24302 6.7153 4.1698 6.89547 4.1698 7.08333C4.1698 7.2712 4.24302 7.45136 4.37335 7.5842C4.50368 7.71704 4.68045 7.79167 4.86477 7.79167H11.8145C11.9988 7.79167 12.1755 7.71704 12.3059 7.5842C12.4362 7.45136 12.5094 7.2712 12.5094 7.08333C12.5094 6.89547 12.4362 6.7153 12.3059 6.58247C12.1755 6.44963 11.9988 6.375 11.8145 6.375Z" fill="#087725"/>
<path d="M11.8145 9.20837H4.86477C4.68045 9.20837 4.50368 9.283 4.37335 9.41584C4.24302 9.54868 4.1698 9.72885 4.1698 9.91671C4.1698 10.1046 4.24302 10.2847 4.37335 10.4176C4.50368 10.5504 4.68045 10.625 4.86477 10.625H11.8145C11.9988 10.625 12.1755 10.5504 12.3059 10.4176C12.4362 10.2847 12.5094 10.1046 12.5094 9.91671C12.5094 9.72885 12.4362 9.54868 12.3059 9.41584C12.1755 9.283 11.9988 9.20837 11.8145 9.20837Z" fill="#087725"/>
</g>
<defs>
<clipPath id="clip0_23_70">
<rect width="16.6792" height="17" fill="white"/>
</clipPath>
</defs>
</svg>
