<svg width="16" height="17" viewBox="0 0 16 17" fill="none" xmlns="http://www.w3.org/2000/svg">
<path d="M4.66667 9.777C4.66667 9.96221 4.59643 10.1398 4.4714 10.2708C4.34638 10.4018 4.17681 10.4754 4 10.4754H3.33333C3.15652 10.4754 2.98695 10.4018 2.86193 10.2708C2.7369 10.1398 2.66667 9.96221 2.66667 9.777C2.66667 9.59178 2.7369 9.41415 2.86193 9.28318C2.98695 9.15222 3.15652 9.07864 3.33333 9.07864H4C4.17681 9.07864 4.34638 9.15222 4.4714 9.28318C4.59643 9.41415 4.66667 9.59178 4.66667 9.777ZM7.33333 9.07864H6.66667C6.48986 9.07864 6.32029 9.15222 6.19526 9.28318C6.07024 9.41415 6 9.59178 6 9.777C6 9.96221 6.07024 10.1398 6.19526 10.2708C6.32029 10.4018 6.48986 10.4754 6.66667 10.4754H7.33333C7.51014 10.4754 7.67971 10.4018 7.80474 10.2708C7.92976 10.1398 8 9.96221 8 9.777C8 9.59178 7.92976 9.41415 7.80474 9.28318C7.67971 9.15222 7.51014 9.07864 7.33333 9.07864ZM4 11.8721H3.33333C3.15652 11.8721 2.98695 11.9456 2.86193 12.0766C2.7369 12.2076 2.66667 12.3852 2.66667 12.5704C2.66667 12.7556 2.7369 12.9333 2.86193 13.0642C2.98695 13.1952 3.15652 13.2688 3.33333 13.2688H4C4.17681 13.2688 4.34638 13.1952 4.4714 13.0642C4.59643 12.9333 4.66667 12.7556 4.66667 12.5704C4.66667 12.3852 4.59643 12.2076 4.4714 12.0766C4.34638 11.9456 4.17681 11.8721 4 11.8721ZM7.33333 11.8721H6.66667C6.48986 11.8721 6.32029 11.9456 6.19526 12.0766C6.07024 12.2076 6 12.3852 6 12.5704C6 12.7556 6.07024 12.9333 6.19526 13.0642C6.32029 13.1952 6.48986 13.2688 6.66667 13.2688H7.33333C7.51014 13.2688 7.67971 13.1952 7.80474 13.0642C7.92976 12.9333 8 12.7556 8 12.5704C8 12.3852 7.92976 12.2076 7.80474 12.0766C7.67971 11.9456 7.51014 11.8721 7.33333 11.8721ZM4 3.49178H3.33333C3.15652 3.49178 2.98695 3.56536 2.86193 3.69633C2.7369 3.8273 2.66667 4.00493 2.66667 4.19014C2.66667 4.37536 2.7369 4.55299 2.86193 4.68395C2.98695 4.81492 3.15652 4.8885 3.33333 4.8885H4C4.17681 4.8885 4.34638 4.81492 4.4714 4.68395C4.59643 4.55299 4.66667 4.37536 4.66667 4.19014C4.66667 4.00493 4.59643 3.8273 4.4714 3.69633C4.34638 3.56536 4.17681 3.49178 4 3.49178ZM7.33333 3.49178H6.66667C6.48986 3.49178 6.32029 3.56536 6.19526 3.69633C6.07024 3.8273 6 4.00493 6 4.19014C6 4.37536 6.07024 4.55299 6.19526 4.68395C6.32029 4.81492 6.48986 4.8885 6.66667 4.8885H7.33333C7.51014 4.8885 7.67971 4.81492 7.80474 4.68395C7.92976 4.55299 8 4.37536 8 4.19014C8 4.00493 7.92976 3.8273 7.80474 3.69633C7.67971 3.56536 7.51014 3.49178 7.33333 3.49178ZM4 6.28521H3.33333C3.15652 6.28521 2.98695 6.35879 2.86193 6.48976C2.7369 6.62072 2.66667 6.79835 2.66667 6.98357C2.66667 7.16878 2.7369 7.34641 2.86193 7.47738C2.98695 7.60835 3.15652 7.68192 3.33333 7.68192H4C4.17681 7.68192 4.34638 7.60835 4.4714 7.47738C4.59643 7.34641 4.66667 7.16878 4.66667 6.98357C4.66667 6.79835 4.59643 6.62072 4.4714 6.48976C4.34638 6.35879 4.17681 6.28521 4 6.28521ZM7.33333 6.28521H6.66667C6.48986 6.28521 6.32029 6.35879 6.19526 6.48976C6.07024 6.62072 6 6.79835 6 6.98357C6 7.16878 6.07024 7.34641 6.19526 7.47738C6.32029 7.60835 6.48986 7.68192 6.66667 7.68192H7.33333C7.51014 7.68192 7.67971 7.60835 7.80474 7.47738C7.92976 7.34641 8 7.16878 8 6.98357C8 6.79835 7.92976 6.62072 7.80474 6.48976C7.67971 6.35879 7.51014 6.28521 7.33333 6.28521ZM16 6.98357V13.2688C15.9989 14.1945 15.6474 15.082 15.0225 15.7366C14.3976 16.3912 13.5504 16.7595 12.6667 16.7606H3.33333C2.4496 16.7595 1.60237 16.3912 0.97748 15.7366C0.352588 15.082 0.00105857 14.1945 0 13.2688L0 3.49178C0.00105857 2.56605 0.352588 1.67854 0.97748 1.02394C1.60237 0.369348 2.4496 0.00110889 3.33333 0L7.33333 0C8.21706 0.00110889 9.06429 0.369348 9.68919 1.02394C10.3141 1.67854 10.6656 2.56605 10.6667 3.49178H12.6667C13.5504 3.49289 14.3976 3.86113 15.0225 4.51573C15.6474 5.17032 15.9989 6.05783 16 6.98357ZM3.33333 15.3638H9.33333V3.49178C9.33333 2.93614 9.12262 2.40325 8.74755 2.01035C8.37247 1.61744 7.86377 1.39671 7.33333 1.39671H3.33333C2.8029 1.39671 2.29419 1.61744 1.91912 2.01035C1.54405 2.40325 1.33333 2.93614 1.33333 3.49178V13.2688C1.33333 13.8244 1.54405 14.3573 1.91912 14.7502C2.29419 15.1431 2.8029 15.3638 3.33333 15.3638ZM14.6667 6.98357C14.6667 6.42792 14.456 5.89503 14.0809 5.50213C13.7058 5.10923 13.1971 4.8885 12.6667 4.8885H10.6667V15.3638H12.6667C13.1971 15.3638 13.7058 15.1431 14.0809 14.7502C14.456 14.3573 14.6667 13.8244 14.6667 13.2688V6.98357ZM12.6667 9.07864C12.5348 9.07864 12.4059 9.1196 12.2963 9.19633C12.1867 9.27307 12.1012 9.38214 12.0507 9.50975C12.0003 9.63735 11.9871 9.77777 12.0128 9.91324C12.0385 10.0487 12.102 10.1731 12.1953 10.2708C12.2885 10.3685 12.4073 10.435 12.5366 10.4619C12.6659 10.4889 12.8 10.475 12.9218 10.4222C13.0436 10.3693 13.1477 10.2798 13.221 10.165C13.2942 10.0501 13.3333 9.91512 13.3333 9.777C13.3333 9.59178 13.2631 9.41415 13.1381 9.28318C13.013 9.15222 12.8435 9.07864 12.6667 9.07864ZM12.6667 11.8721C12.5348 11.8721 12.4059 11.913 12.2963 11.9898C12.1867 12.0665 12.1012 12.1756 12.0507 12.3032C12.0003 12.4308 11.9871 12.5712 12.0128 12.7067C12.0385 12.8421 12.102 12.9666 12.1953 13.0642C12.2885 13.1619 12.4073 13.2284 12.5366 13.2554C12.6659 13.2823 12.8 13.2685 12.9218 13.2156C13.0436 13.1628 13.1477 13.0733 13.221 12.9584C13.2942 12.8436 13.3333 12.7085 13.3333 12.5704C13.3333 12.3852 13.2631 12.2076 13.1381 12.0766C13.013 11.9456 12.8435 11.8721 12.6667 11.8721ZM12.6667 6.28521C12.5348 6.28521 12.4059 6.32617 12.2963 6.40291C12.1867 6.47964 12.1012 6.58871 12.0507 6.71632C12.0003 6.84393 11.9871 6.98434 12.0128 7.11981C12.0385 7.25528 12.102 7.37971 12.1953 7.47738C12.2885 7.57505 12.4073 7.64156 12.5366 7.66851C12.6659 7.69545 12.8 7.68162 12.9218 7.62877C13.0436 7.57591 13.1477 7.4864 13.221 7.37155C13.2942 7.25671 13.3333 7.12169 13.3333 6.98357C13.3333 6.79835 13.2631 6.62072 13.1381 6.48976C13.013 6.35879 12.8435 6.28521 12.6667 6.28521Z" fill="#087725"/>
</svg>
