<svg width="21" height="21" viewBox="0 0 21 21" fill="none" xmlns="http://www.w3.org/2000/svg">
<g clip-path="url(#clip0_23_83)">
<path fill-rule="evenodd" clip-rule="evenodd" d="M10.5 0C4.70138 0 0 4.70138 0 10.5C0 16.2986 4.70138 21 10.5 21C16.2986 21 21 16.2986 21 10.5C21 4.70138 16.2986 0 10.5 0ZM15.3668 7.14088C15.2093 8.80075 14.525 12.8301 14.1776 14.6895C14.0306 15.477 13.7401 15.7404 13.4601 15.7657C12.8503 15.8217 12.3874 15.3624 11.7968 14.9756C10.8728 14.3701 10.3504 13.993 9.4535 13.4015C8.41663 12.7181 9.08862 12.3427 9.67925 11.7294C9.83413 11.5684 12.5204 9.1245 12.5729 8.90312C12.579 8.87512 12.586 8.77188 12.5239 8.71763C12.4618 8.66337 12.3716 8.68175 12.3069 8.69662C12.2141 8.71762 10.738 9.69325 7.87763 11.6235C7.4585 11.9114 7.07875 12.0514 6.73838 12.0444C6.36388 12.0365 5.64287 11.8326 5.1065 11.6576C4.44938 11.4441 3.92613 11.3304 3.97163 10.9681C3.99525 10.7791 4.25513 10.5857 4.75213 10.388C7.81288 9.0545 9.85425 8.17513 10.8754 7.74988C13.7917 6.53713 14.3973 6.32625 14.7928 6.31925C15.288 6.31225 15.407 6.72088 15.3668 7.14088Z" fill="#087725"/>
</g>
<defs>
<clipPath id="clip0_23_83">
<rect width="21" height="21" fill="white"/>
</clipPath>
</defs>
</svg>
