<svg width="21" height="21" viewBox="0 0 21 21" fill="none" xmlns="http://www.w3.org/2000/svg">
<g clip-path="url(#clip0_23_80)">
<path d="M19.5265 1.4735C18.053 0 15.6809 0 10.9375 0H10.0625C5.31913 0 2.947 0 1.4735 1.4735C0 2.947 0 5.31913 0 10.0625V10.9375C0 15.6809 0 18.0521 1.4735 19.5265C2.947 21.0009 5.31913 21 10.0625 21H10.9375C15.6809 21 18.0521 21 19.5265 19.5265C21 18.053 21 15.6809 21 10.9375V10.0625C21 5.31913 21 2.947 19.5265 1.4735ZM17.0651 14.875H15.5339C14.9503 14.875 14.7788 14.4095 13.7401 13.3709C12.831 12.495 12.4416 12.3812 12.215 12.3812C11.9061 12.3812 11.8142 12.4688 11.8142 12.9062V14.2791C11.8142 14.6554 11.6944 14.875 10.7205 14.875C9.09825 14.875 7.315 13.8898 6.04887 12.0732C4.15013 9.41238 3.63125 7.40075 3.63125 6.99563C3.63125 6.76813 3.71875 6.5625 4.15625 6.5625H5.68837C6.0795 6.5625 6.2265 6.734 6.3735 7.1575C7.1225 9.33887 8.386 11.2455 8.90487 11.2455C9.09912 11.2455 9.18838 11.1554 9.18838 10.6619V8.407C9.1315 7.36925 8.57938 7.2835 8.57938 6.91425C8.57938 6.74363 8.7255 6.5625 8.96875 6.5625H11.3759C11.7005 6.5625 11.8134 6.73575 11.8134 7.12512V10.1587C11.8134 10.4825 11.9542 10.5962 12.0514 10.5962C12.2465 10.5962 12.4084 10.4825 12.7654 10.1255C13.8687 8.89262 14.6475 6.99475 14.6475 6.99475C14.7455 6.76725 14.924 6.56163 15.3143 6.56163H16.8455C17.3084 6.56163 17.4064 6.79963 17.3084 7.12425C17.1133 8.01675 15.2478 10.6444 15.2478 10.6444C15.085 10.9043 15.0203 11.0338 15.2478 11.326C15.4105 11.5535 15.9451 12.0076 16.3021 12.4294C16.9601 13.1696 17.4562 13.7935 17.5945 14.224C17.7222 14.6562 17.5026 14.875 17.0651 14.875Z" fill="#087725"/>
</g>
<defs>
<clipPath id="clip0_23_80">
<rect width="21" height="21" fill="white"/>
</clipPath>
</defs>
</svg>
