<svg width="22" height="23" viewBox="0 0 22 23" fill="none" xmlns="http://www.w3.org/2000/svg">
<path fill-rule="evenodd" clip-rule="evenodd" d="M18.5146 3.22113C16.4768 1.14513 13.7676 0.000923488 10.8814 0C4.93397 0 0.0934532 4.92588 0.0907313 10.9821C0.089824 12.9177 0.587031 14.8072 1.53154 16.4732L0 22.1637L5.7197 20.6363C7.2957 21.5117 9.07041 21.9725 10.876 21.9735H10.8805C16.827 21.9735 21.6684 17.0467 21.6712 10.9904C21.673 8.05651 20.5515 5.2962 18.5146 3.22113ZM10.8814 20.1182H10.8778C9.2682 20.1182 7.69038 19.6777 6.31308 18.8456L5.98554 18.648L2.59129 19.5539L3.49769 16.185L3.28447 15.8397C2.38623 14.3861 1.91262 12.7063 1.91352 10.9821C1.91534 5.94911 5.93927 1.85436 10.8859 1.85436C13.2812 1.85436 15.5332 2.80556 17.2262 4.53063C18.9193 6.25663 19.8511 8.54965 19.8502 10.9886C19.8475 16.0234 15.8244 20.1182 10.8814 20.1182ZM15.8009 13.2816C15.5314 13.144 14.2058 12.48 13.9581 12.3886C13.7113 12.2972 13.5317 12.251 13.3511 12.5253C13.1706 12.7995 12.6552 13.4183 12.4973 13.6021C12.3404 13.7849 12.1825 13.808 11.913 13.6704C11.6435 13.5328 10.7743 13.2437 9.74454 12.3082C8.94338 11.5805 8.40172 10.682 8.24475 10.4068C8.08779 10.1316 8.22842 9.98383 8.3627 9.84715C8.48428 9.72433 8.63217 9.5267 8.76736 9.36602C8.90346 9.20718 8.94792 9.09266 9.03865 8.90889C9.12847 8.72604 9.08402 8.56535 9.01597 8.42775C8.94792 8.29108 8.40898 6.94001 8.18487 6.39054C7.96621 5.85491 7.74392 5.92787 7.57788 5.91956C7.42091 5.91125 7.24126 5.91032 7.06071 5.91032C6.88106 5.91032 6.58891 5.97866 6.34212 6.25386C6.09533 6.52906 5.39851 7.19305 5.39851 8.54319C5.39851 9.89425 6.3648 11.1991 6.49908 11.382C6.63336 11.5648 8.3999 14.3372 11.1046 15.5257C11.7479 15.8083 12.2505 15.9773 12.6416 16.1038C13.2876 16.3125 13.8755 16.2829 14.3401 16.2128C14.8582 16.1343 15.9351 15.5488 16.1602 14.9079C16.3852 14.267 16.3852 13.7166 16.3171 13.603C16.25 13.4875 16.0703 13.4192 15.8009 13.2816Z" fill="#087725"/>
</svg>
